/* XPM */
static char * wxbriscola_xpm[] = {
"16 16 104 2",
"  	c #FFFFFF",
". 	c #FEFEFE",
"+ 	c #FBFAF6",
"@ 	c #FCFCFA",
"# 	c #FDFDFD",
"$ 	c #F6F6F6",
"% 	c #FEFEFF",
"& 	c #DAD7C0",
"* 	c #C0B87F",
"= 	c #F6F5EE",
"- 	c #D2CA8F",
"; 	c #CDC697",
"> 	c #FBFAF8",
", 	c #EBE6E6",
"' 	c #CE7A82",
") 	c #C9C3C1",
"! 	c #E5E3D2",
"~ 	c #C7C4BB",
"{ 	c #DB959B",
"] 	c #EDDFE0",
"^ 	c #D6C0C1",
"/ 	c #B18D8F",
"( 	c #BF9D9F",
"_ 	c #C8B4B5",
": 	c #F7F7F7",
"< 	c #E4DCDD",
"[ 	c #D5C5C7",
"} 	c #EEE0E1",
"| 	c #E9DFE0",
"1 	c #FBFBFB",
"2 	c #FCFCFC",
"3 	c #EDEDED",
"4 	c #E6E6E6",
"5 	c #E4E4E4",
"6 	c #E3E3E3",
"7 	c #E2E2E1",
"8 	c #E1E1E1",
"9 	c #DBDBDB",
"0 	c #DADADA",
"a 	c #D7D7D7",
"b 	c #D0D0D0",
"c 	c #D5D5D5",
"d 	c #F4F4F4",
"e 	c #C8C8C8",
"f 	c #B3B2B2",
"g 	c #A9A7A8",
"h 	c #B4B3B4",
"i 	c #B1B0B0",
"j 	c #BFBEBF",
"k 	c #B0AFB0",
"l 	c #B6B5B6",
"m 	c #ABAAAB",
"n 	c #A5A4A5",
"o 	c #F7F7F6",
"p 	c #ABA9AA",
"q 	c #ADACAC",
"r 	c #B3B2B3",
"s 	c #BEBDBE",
"t 	c #B1B1B1",
"u 	c #B5B4B4",
"v 	c #A4A2A3",
"w 	c #B2B0B1",
"x 	c #A7A6A6",
"y 	c #CECECE",
"z 	c #D6D6D6",
"A 	c #A6A5A6",
"B 	c #B2B1B2",
"C 	c #9C9B9B",
"D 	c #B7B6B7",
"E 	c #B4B3B3",
"F 	c #ABAAAA",
"G 	c #AAA9A9",
"H 	c #C5C5C5",
"I 	c #F1F1F0",
"J 	c #D8D8D8",
"K 	c #AEADAE",
"L 	c #B1B0B1",
"M 	c #AAA8A9",
"N 	c #BDBBBC",
"O 	c #B5B4B5",
"P 	c #BCBBBC",
"Q 	c #F1F1F1",
"R 	c #D9D9D9",
"S 	c #B2B1B1",
"T 	c #AFAEAE",
"U 	c #AFAEAF",
"V 	c #B6B5B5",
"W 	c #B7B6B6",
"X 	c #BBBABA",
"Y 	c #B8B7B7",
"Z 	c #C7C7C7",
"` 	c #E9E9E9",
" .	c #E0E0E0",
"..	c #DEDEDE",
"+.	c #E2E2E2",
"@.	c #E5E5E5",
"#.	c #EAEBEA",
"$.	c #ECECEC",
"%.	c #EAEAEA",
"&.	c #F3F3F3",
"*.	c #FAFAFA",
"=.	c #F9F9F9",
"-.	c #FAF9F9",
";.	c #FBFAFA",
"                                ",
"                                ",
"                      .         ",
"          + @     #   $         ",
"        % & * = - ; > $         ",
"        , ' ) ! ~ { ] $         ",
"        ^ /       ( _ :         ",
"        < [       } | 1   2     ",
"  3 4 5 6 7 8 9 0 a b c 5 d     ",
". e f g h i j k l m h n a o     ",
"  b m p q r s t u v w x y d     ",
"  z A B C D B j E f F G H I     ",
"  J K L M w K N O P A r j Q     ",
"  R S m T U E V W X X Y Z d     ",
"  `  ...+.+.@.#.$.%.` %.Q &.    ",
"  1 *.=.=.*.1 1 *.-.=.;.2       "};
